# xmcd CD database file
#
# Track frame offsets:
#	150
#	19026
#	36284
#	53091
#	71000
#	91310
#	108511
#	127542
#	143884
#	162275
#	180338
#	196119
#	211634
#
# Disc length: 3135 seconds
#
# Revision: 0
# Processed by: cddbd v1.4PL0 Copyright (c) Steve Scherf et al.
# Submitted via: Feurio! 1.65 - http://www.feurio.com
#
DISCID=a10c3d0d
DTITLE=Nino De Angelo - Solang Man Liebt
DYEAR=2002
DGENRE=
TTITLE0=Alles was ich will, bist du
TTITLE1=Ich war nie ein Engel
TTITLE2=Wenn du lachst
TTITLE3=Donde vas
TTITLE4=Piccola e Fragile
TTITLE5=Ich mach meine Augen zu ( Everytime)
TTITLE6=Der goldene Reiter
TTITLE7=Solang es uns gibt
TTITLE8=Ich denk an dich
TTITLE9=Lass uns weitergehn
TTITLE10=Sarah
TTITLE11=Könige sein
TTITLE12=Ancora tu
EXTD=
EXTT0=
EXTT1=
EXTT2=
EXTT3=
EXTT4=
EXTT5=
EXTT6=
EXTT7=
EXTT8=
EXTT9=
EXTT10=
EXTT11=
EXTT12=
PLAYORDER=
